<svg width="24" height="24" viewBox="0 0 24 24" fill="none" xmlns="http://www.w3.org/2000/svg">
    <g clip-path="url(#clip0_172_1809)">
        <path d="M11.6239 7.22198C10.7479 7.22198 9.39194 6.22598 7.96394 6.26198C6.07994 6.28598 4.35194 7.35397 3.37994 9.04597C1.42394 12.442 2.87594 17.458 4.78394 20.218C5.71994 21.562 6.82394 23.074 8.28794 23.026C9.69194 22.966 10.2199 22.114 11.9239 22.114C13.6159 22.114 14.0959 23.026 15.5839 22.99C17.0959 22.966 18.0559 21.622 18.9799 20.266C20.0479 18.706 20.4919 17.194 20.5159 17.11C20.4799 17.098 17.5759 15.982 17.5399 12.622C17.5159 9.81397 19.8319 8.46998 19.9399 8.40998C18.6199 6.47798 16.5919 6.26198 15.8839 6.21398C14.0359 6.06998 12.4879 7.22198 11.6239 7.22198V7.22198ZM14.7439 4.38998C15.5239 3.45398 16.0399 2.14598 15.8959 0.849976C14.7799 0.897976 13.4359 1.59398 12.6319 2.52998C11.9119 3.35798 11.2879 4.68998 11.4559 5.96198C12.6919 6.05798 13.9639 5.32598 14.7439 4.38998V4.38998Z" fill="white"/>
    </g>
    <defs>
        <clipPath id="clip0_172_1809">
            <rect width="24" height="24" fill="white"/>
        </clipPath>
    </defs>
</svg>
